<svg fill="#FA5252" xmlns="http://www.w3.org/2000/svg"  viewBox="0 0 72 72" width="64px" height="64px"><path d="M38.5 67h-5C27.71 67 23 62.29 23 56.5S27.71 46 33.5 46h5C44.29 46 49 50.71 49 56.5S44.29 67 38.5 67zM33.5 54c-1.379 0-2.5 1.122-2.5 2.5s1.121 2.5 2.5 2.5h5c1.379 0 2.5-1.122 2.5-2.5S39.879 54 38.5 54H33.5zM38.5 44h-12C20.71 44 16 39.29 16 33.5S20.71 23 26.5 23h12C44.29 23 49 27.71 49 33.5S44.29 44 38.5 44zM26.5 31c-1.379 0-2.5 1.122-2.5 2.5s1.121 2.5 2.5 2.5h12c1.379 0 2.5-1.122 2.5-2.5S39.879 31 38.5 31H26.5zM40.495 20.993c-4.681 0-8.488-3.808-8.488-8.488s3.807-8.488 8.488-8.488 8.488 3.808 8.488 8.488S45.176 20.993 40.495 20.993zM40.495 10.034c-1.362 0-2.47 1.108-2.47 2.47s1.108 2.47 2.47 2.47c1.362 0 2.47-1.108 2.47-2.47S41.857 10.034 40.495 10.034z"/></svg>